<svg xmlns="http://www.w3.org/2000/svg" width="309.984" height="36.372" viewBox="0 0 309.984 36.372"><defs><style>.a{fill:#722182;}</style></defs><g transform="translate(172.095 4.385)"><path class="a" d="M175.092,6.194c0-1.2-.1-1.2-.7-1.3l-.4-.1c-.1-.1-.1-.4,0-.4h3.986c.1.1.1.4,0,.4l-.3.1c-.7.1-.7.1-.7,1.3v4.484a7.777,7.777,0,0,1-.3,2.392,3.143,3.143,0,0,1-2.989,1.993c-.4,0-1-.1-1-.5a2.11,2.11,0,0,1,.3-.7.518.518,0,0,1,.4-.2,1.325,1.325,0,0,1,.7.3.861.861,0,0,0,.6.3c.3,0,.4-.6.4-1,0-.2.1-1.1.1-2.392V6.194Z" transform="translate(-172.7 -4.4)"/></g><g transform="translate(177.301 4.086)"><path class="a" d="M180.79,9.68c-.3,0-.3,0-.4.2l-.5,1.4a.753.753,0,0,0-.1.4c0,.1.2.1.5.2l.4.1c.1.1.1.4,0,.4H178a.3.3,0,0,1,0-.4h.3a.793.793,0,0,0,.8-.6c.2-.5.5-1.1.8-1.993l1.2-2.989a5.374,5.374,0,0,0,.5-1.594,2.183,2.183,0,0,0,1.1-.7c.2,0,.2.1.3.2.1.4.3.8.6,1.694l1.694,4.783c.3.7.4,1,.9,1.1l.5.1c.1.1.1.4,0,.4h-3.687c-.1-.1-.2-.3,0-.4l.4-.1c.3,0,.3-.1.3-.2s-.1-.4-.2-.8l-.5-.9c-.1-.2-.2-.2-.6-.2H180.79Zm1.495-.6c.3,0,.4,0,.3-.4l-.3-1c-.2-.5-.4-1.2-.5-1.495-.1.3-.4.9-.6,1.495l-.3.9c-.1.3-.1.4.3.4h1.1Z" transform="translate(-177.925 -4.1)"/></g><g transform="translate(186.967 4.385)"><path class="a" d="M188.7,6.393c0-1.2,0-1.4-.6-1.495h-.4a.3.3,0,0,1,0-.4,26.184,26.184,0,0,1,2.99-.1,6.312,6.312,0,0,1,2.292.3,2.173,2.173,0,0,1,1.594,2.093c0,1.993-2.093,2.292-2.79,2.292h-.4c-.1-.1-.1-.3,0-.3,1.1-.3,1.3-1,1.3-1.993s-.5-1.893-1.594-1.893c-.5,0-.5.1-.5.6v5.182c0,1.1.1,1.2.7,1.3l.4.1a.3.3,0,0,1,0,.4H187.8c-.1-.1-.2-.4,0-.4l.4-.1c.6-.1.7-.2.7-1.3V6.393Z" transform="translate(-187.625 -4.4)"/></g><g transform="translate(193.245 4.086)"><path class="a" d="M196.79,9.68c-.3,0-.3,0-.4.2l-.5,1.4a.753.753,0,0,0-.1.4c0,.1.2.1.5.2l.4.1c.1.1.1.4,0,.4H194a.3.3,0,0,1,0-.4h.3a.793.793,0,0,0,.8-.6c.2-.5.5-1.1.8-1.993l1.2-2.989a5.374,5.374,0,0,0,.5-1.594,2.183,2.183,0,0,0,1.1-.7c.2,0,.2.1.3.2.1.4.3.8.6,1.694l1.694,4.783c.3.7.4,1,.9,1.1l.5.1c.1.1.1.4,0,.4h-3.687c-.1-.1-.2-.3,0-.4l.4-.1c.3,0,.3-.1.3-.2s-.1-.4-.2-.8l-.5-.9c-.1-.2-.2-.2-.6-.2H196.79Zm1.495-.6c.3,0,.4,0,.3-.4l-.3-1c-.2-.5-.4-1.2-.5-1.495-.1.3-.4.9-.6,1.495l-.3.9c-.1.3-.1.4.3.4h1.1Z" transform="translate(-193.925 -4.1)"/></g><g transform="translate(202.621 4.484)"><path class="a" d="M211.571,10.379v1.993a1.2,1.2,0,0,1-.8.3,15.083,15.083,0,0,0-1-1.3l-2.989-3.488a16.137,16.137,0,0,0-1.4-1.594c-.1.1-.1.3-.1.8V9.482a11.282,11.282,0,0,0,.2,2.292c.1.3.4.3.7.4h.4c.1.1.1.4,0,.4H203.5a.3.3,0,0,1,0-.4h.2c.3-.1.6-.1.7-.4a10.527,10.527,0,0,0,.2-2.292V6.294c0-.7,0-.9-.1-1a.717.717,0,0,0-.7-.4h-.4c-.1-.1-.1-.4.1-.4h2.89c.1.6,1,1.495,2.093,2.79l1.1,1.2c.6.6.9,1.1,1.2,1.4.1-.1.1-.3.1-.6V7.489a9.438,9.438,0,0,0-.2-2.192c-.1-.3-.4-.3-.7-.4h-.3c-.1-.1-.1-.4,0-.4h3.089a.3.3,0,0,1,0,.4h-.2a.667.667,0,0,0-.7.4,10.142,10.142,0,0,0-.2,2.192v2.89Z" transform="translate(-203.334 -4.5)"/></g><g transform="translate(213.075 4.385)"><path class="a" d="M216.989,7.589c0,.3,0,.4.4.4h.9c.7,0,.8-.1.9-.7l.1-.3a.453.453,0,0,1,.5,0V9.582a.453.453,0,0,1-.5,0l-.1-.3c-.1-.6-.3-.7-.9-.7h-.9c-.3,0-.4,0-.4.4v1.495a2.862,2.862,0,0,0,.2,1.2c.2.2.4.3,1.3.3,1.1,0,1.495,0,2.292-1.4a.347.347,0,0,1,.5.1c-.1.6-.4,1.594-.5,1.993H213.9c-.1-.1-.1-.4,0-.4l.6-.1c.6-.1.7-.2.7-1.3V6.194c0-1.1-.1-1.2-.7-1.3l-.3-.1c-.1-.1-.1-.4,0-.4h6.178c0,.2.1,1.1.2,1.893a.329.329,0,0,1-.5,0,2.337,2.337,0,0,0-.5-1,1.731,1.731,0,0,0-1.2-.3h-1c-.4,0-.4,0-.4.4Z" transform="translate(-213.825 -4.4)"/></g><g transform="translate(221.222 4.185)"><path class="a" d="M224.591,12.67a4.043,4.043,0,0,1-2.192-.5,4.626,4.626,0,0,1-.4-1.993.282.282,0,0,1,.5,0c.3.8,1.1,1.893,2.192,1.893a1.268,1.268,0,0,0,1.4-1.2c0-1-1-1.594-1.694-1.993A2.813,2.813,0,0,1,222.5,6.492c0-1.4,1.1-2.292,2.989-2.292a4.405,4.405,0,0,1,1.495.2c.2,0,.3.1.4.1a6.225,6.225,0,0,1,.2,1.794c-.1.1-.4.2-.5,0-.2-.6-.8-1.495-1.694-1.495a1.164,1.164,0,0,0-1.3,1.1,1.679,1.679,0,0,0,1.2,1.4l.8.4a2.771,2.771,0,0,1,1.794,2.491C227.879,11.674,226.584,12.67,224.591,12.67Z" transform="translate(-222 -4.2)"/></g><g transform="translate(228.023 4.385)"><path class="a" d="M231.989,7.589c0,.3,0,.4.4.4h.9c.7,0,.8-.1.9-.7l.1-.3a.453.453,0,0,1,.5,0V9.582a.453.453,0,0,1-.5,0l-.1-.3c-.1-.6-.3-.7-.9-.7h-.9c-.3,0-.4,0-.4.4v1.495a2.862,2.862,0,0,0,.2,1.2c.2.2.4.3,1.3.3,1.1,0,1.495,0,2.292-1.4a.347.347,0,0,1,.5.1c-.1.6-.4,1.594-.5,1.993H228.9c-.1-.1-.1-.4,0-.4l.6-.1c.6-.1.7-.2.7-1.3V6.194c0-1.1-.1-1.2-.7-1.3l-.3-.1c-.1-.1-.1-.4,0-.4h6.178c0,.2.1,1.1.2,1.893a.329.329,0,0,1-.5,0,2.336,2.336,0,0,0-.5-1,1.79,1.79,0,0,0-1.3-.4h-1c-.3.1-.3.1-.3.5Z" transform="translate(-228.825 -4.4)"/></g><g transform="translate(238.685 4.086)"><path class="a" d="M242.39,9.68c-.3,0-.3,0-.4.2l-.5,1.4a.753.753,0,0,0-.1.4c0,.1.2.1.5.2l.4.1c.1.1.1.4,0,.4H239.6a.3.3,0,0,1,0-.4h.3a.793.793,0,0,0,.8-.6c.2-.5.5-1.1.8-1.993l1.2-2.989a5.374,5.374,0,0,0,.5-1.594,2.183,2.183,0,0,0,1.1-.7c.2,0,.2.1.3.2.1.4.3.8.6,1.694l1.694,4.783c.3.7.4,1,.9,1.1l.5.1c.1.1.1.4,0,.4h-3.687c-.1-.1-.2-.3,0-.4l.4-.1c.3,0,.3-.1.3-.2s-.1-.4-.2-.8l-.3-1.1c-.1-.2-.2-.2-.6-.2H242.39Zm1.495-.6c.3,0,.4,0,.3-.4l-.3-1c-.2-.5-.4-1.2-.5-1.495-.1.3-.4.9-.6,1.495l-.3.9c-.1.3-.1.4.3.4h1.1Z" transform="translate(-239.525 -4.1)"/></g><g transform="translate(248.261 4.285)"><path class="a" d="M249.3,4.8c-.1-.1-.1-.4,0-.4h2.89a6.431,6.431,0,0,0,1,2.691l.8,1.694c.1.2.6,1,.8,1.3a8.78,8.78,0,0,0,.7-1.4l.7-1.4a16.937,16.937,0,0,0,1.2-2.989h2.79a.3.3,0,0,1,0,.4l-.4.1c-.5.1-.8.2-.8.9,0,2.491,0,3.886.1,5.381,0,.6.1.9.6.9h.4c.1.1.1.4,0,.4h-3.687a.208.208,0,0,1,0-.4h.4c.6-.1.6-.2.6-1V6.492h0c-.9,1.993-1.993,3.986-2.79,6.079-.1,0-.2.1-.3.1s-.3,0-.3-.1c-.5-1.495-2.093-4.584-2.79-6.178h0a14.032,14.032,0,0,0-.1,1.993v2.79c0,.6.1.8.6.9l.5.1c.1.1.1.4,0,.4H249.3c-.2,0-.2-.4-.1-.4h.2c.7-.1.7-.2.8-.9.1-.6.1-1.694.2-2.79a21.67,21.67,0,0,0,.1-2.491c0-.7-.3-.9-.8-1Z" transform="translate(-249.134 -4.3)"/></g><g transform="translate(260.01 4.385)"><path class="a" d="M264.089,7.589c0,.3,0,.4.4.4h.9c.7,0,.8-.1.9-.7l.1-.3a.453.453,0,0,1,.5,0V9.582a.453.453,0,0,1-.5,0l-.1-.3c-.1-.6-.3-.7-.9-.7h-.9c-.3,0-.4,0-.4.4v1.495a2.862,2.862,0,0,0,.2,1.2c.2.2.4.3,1.3.3,1.1,0,1.495,0,2.292-1.4a.347.347,0,0,1,.5.1c-.1.6-.4,1.594-.5,1.993H261c-.1-.1-.1-.4,0-.4l.6-.1c.6-.1.7-.2.7-1.3V6.194c0-1.1-.1-1.2-.7-1.3l-.3-.1c-.1-.1-.1-.4,0-.4h6.178c0,.2.1,1.1.2,1.893a.329.329,0,0,1-.5,0,2.336,2.336,0,0,0-.5-1,1.79,1.79,0,0,0-1.3-.4h-1c-.4,0-.4,0-.4.5V7.589Z" transform="translate(-260.925 -4.4)"/></g><g transform="translate(268.181 4.484)"><path class="a" d="M270.2,6.393c0-1.2,0-1.4-.6-1.4h-.3c-.1-.1-.1-.4,0-.4,1-.1,1.993-.1,3.189-.1a7.141,7.141,0,0,1,2.491.4,1.985,1.985,0,0,1,1.1,1.794,1.858,1.858,0,0,1-1.4,1.794c-.1.1-.1.1-.1.3a10.177,10.177,0,0,0,1.993,3.089,1.2,1.2,0,0,0,.9.3.366.366,0,0,1,.1.3,2.777,2.777,0,0,1-1,.1,2.652,2.652,0,0,1-2.491-1.3c-.4-.7-.7-1.3-1-1.893a.667.667,0,0,0-.7-.4c-.4,0-.4,0-.4.2v1.495c0,1.1.1,1.2.7,1.3l.3.1c.1.1.1.4,0,.4H269.2c-.1-.1-.1-.4,0-.4l.3-.1c.6-.1.7-.2.7-1.3Zm1.794,1.594c0,.4,0,.5.8.5a1.488,1.488,0,0,0,1-.3,1.755,1.755,0,0,0,.5-1.3A1.65,1.65,0,0,0,272.588,5.1c-.5,0-.6,0-.6.6V7.988Z" transform="translate(-269.125 -4.5)"/></g><g transform="translate(277.548 4.385)"><path class="a" d="M281.29,10.678c0,1.2.1,1.2.7,1.3l.4.1c.1.1.1.4,0,.4H278.6c-.1-.1-.1-.4,0-.4l.4-.1c.6-.1.7-.2.7-1.3V6.194c0-1.2-.1-1.2-.7-1.3l-.4-.1c-.1-.1-.1-.4,0-.4h3.787c.1.1.1.4,0,.4l-.4.1c-.6.1-.7.2-.7,1.3Z" transform="translate(-278.525 -4.4)"/></g><g transform="translate(282.805 4.185)"><path class="a" d="M291.373,4.5a7.958,7.958,0,0,0,.2,1.893c-.1.1-.4.2-.5.1A2.37,2.37,0,0,0,288.683,4.7c-1.4,0-2.89,1.2-2.89,3.587s1.495,3.787,2.989,3.787a2.769,2.769,0,0,0,2.591-1.893.347.347,0,0,1,.5.1,4.961,4.961,0,0,1-.5,1.893,9.2,9.2,0,0,1-2.591.5,6.134,6.134,0,0,1-3.388-.9A3.86,3.86,0,0,1,283.8,8.585,4.293,4.293,0,0,1,285.295,5.3a5.816,5.816,0,0,1,3.488-1.1A20.628,20.628,0,0,1,291.373,4.5Z" transform="translate(-283.8 -4.2)"/></g><g transform="translate(290.603 4.086)"><path class="a" d="M294.49,9.68c-.3,0-.3,0-.4.2l-.5,1.4a.753.753,0,0,0-.1.4c0,.1.2.1.5.2l.4.1c.1.1.1.4,0,.4H291.7a.3.3,0,0,1,0-.4h.3a.793.793,0,0,0,.8-.6c.2-.5.5-1.1.8-1.993l1.2-2.989a5.374,5.374,0,0,0,.5-1.594,2.183,2.183,0,0,0,1.1-.7c.2,0,.2.1.3.2.1.4.3.8.6,1.694l1.694,4.783c.3.7.4,1,.9,1.1l.5.1c.1.1.1.4,0,.4h-3.687c-.1-.1-.2-.3,0-.4l.4-.1c.3,0,.3-.1.3-.2s-.1-.4-.2-.8l-.3-1.1c-.1-.2-.2-.2-.6-.2H294.49Zm1.4-.6c.3,0,.4,0,.3-.4l-.3-1c-.2-.5-.4-1.2-.5-1.495-.1.3-.4.9-.6,1.495l-.3.9c-.1.3-.1.4.3.4h1.1Z" transform="translate(-291.625 -4.1)"/></g><g transform="translate(299.979 4.484)"><path class="a" d="M309.271,10.379v1.993a1.2,1.2,0,0,1-.8.3,15.08,15.08,0,0,0-1-1.3l-2.989-3.488a16.14,16.14,0,0,0-1.4-1.594c-.1.1-.1.3-.1.8V9.482a11.279,11.279,0,0,0,.2,2.292c.1.3.4.3.7.4h.4c.1.1.1.4,0,.4H301.2a.3.3,0,0,1,0-.4h.2c.3-.1.6-.1.7-.4a10.527,10.527,0,0,0,.2-2.292V6.294c0-.7,0-.9-.1-1a.717.717,0,0,0-.7-.4h-.4c-.1-.1-.1-.4.1-.4h2.89c.1.6,1,1.495,2.093,2.79l1.1,1.2c.6.6.9,1.1,1.2,1.4.1-.1.1-.3.1-.6V7.489a9.436,9.436,0,0,0-.2-2.192c-.1-.3-.4-.3-.7-.4h-.3c-.1-.1-.1-.4,0-.4h3.089a.3.3,0,0,1,0,.4h-.2a.667.667,0,0,0-.7.4,10.144,10.144,0,0,0-.2,2.192v2.89Z" transform="translate(-301.034 -4.5)"/></g><g transform="translate(172.826 18.236)"><path class="a" d="M181.87,24.578v1.993c-.1.2-.5.3-.8.3a15.009,15.009,0,0,0-1.1-1.4l-2.989-3.587c-.8-.9-1.2-1.4-1.4-1.594-.1.1-.1.3-.1.8v2.392a10.527,10.527,0,0,0,.2,2.292c.1.3.4.4.8.4h.4c.1.1.1.4,0,.4H173.6a.3.3,0,0,1,0-.4h.2c.4-.1.6-.2.7-.4a10.527,10.527,0,0,0,.2-2.292V20.293a2.523,2.523,0,0,0-.1-1.1.717.717,0,0,0-.7-.4l-.4-.1c-.1-.1-.1-.4.1-.4h2.89c.1.6,1,1.495,2.192,2.89l1.1,1.2c.6.7,1,1.1,1.3,1.4.1-.1.1-.3.1-.6V21.489a10.529,10.529,0,0,0-.2-2.292c-.1-.3-.4-.4-.8-.4l-.4-.1c-.1-.1-.1-.4,0-.4h3.288a.3.3,0,0,1,0,.4h-.2a.839.839,0,0,0-.7.4,10.528,10.528,0,0,0-.2,2.292v3.189Z" transform="translate(-173.434 -18.3)"/></g><g transform="translate(183.081 18.335)"><path class="a" d="M186.69,23.881c-.3,0-.4,0-.4.3l-.5,1.495a1.334,1.334,0,0,0-.1.5c0,.1.2.2.5.2l.4.1c.1.1.1.4,0,.4H183.8a.3.3,0,0,1,0-.4h.4a.793.793,0,0,0,.8-.6c.2-.5.5-1.1.8-1.993l1.2-3.089a5.374,5.374,0,0,0,.5-1.594,2.116,2.116,0,0,0,1.1-.8c.2,0,.2.1.3.2.1.4.3.8.6,1.694l1.794,4.883c.3.8.4,1,.9,1.1l.5.1c.1.1.1.4,0,.4h-3.787c-.1-.1-.2-.3,0-.4l.4-.1c.3-.1.4-.1.4-.2s-.1-.4-.2-.9l-.4-1.1c-.1-.2-.2-.2-.6-.2Zm1.495-.7c.3,0,.4,0,.3-.4l-.3-1c-.2-.5-.4-1.2-.5-1.495-.1.3-.4,1-.6,1.495l-.3.9c-.1.3-.1.4.3.4h1.1Z" transform="translate(-183.725 -18.4)"/></g><g transform="translate(191.925 18.037)"><path class="a" d="M195.789,19.4c0-.3,0-.4-.3-.4h-.8c-1,0-1.2.5-1.594,1.4-.2.1-.4.1-.5-.1A12.218,12.218,0,0,0,193,18.2c.1,0,.1-.1.2-.1h.2c.1.2.1.3,1.1.3h4.883c.9,0,1.1,0,1.2-.3h.2c.1,0,.2,0,.2.1a11.753,11.753,0,0,0-.2,2.192.453.453,0,0,1-.5,0c-.2-.8-.4-1.4-1.4-1.4h-.9c-.3,0-.4,0-.4.4v5.481c0,1.2.1,1.3.7,1.3l.5.1c.1.1.1.4,0,.4h-4.285c-.1-.1-.1-.4,0-.4l.6-.1c.6-.1.7-.2.7-1.3Z" transform="translate(-192.6 -18.1)"/></g><g transform="translate(202.014 18.136)"><path class="a" d="M205.69,24.877c0,1.2.1,1.3.7,1.4l.4.1c.1.1.1.4,0,.4H202.8c-.1-.1-.1-.4,0-.4l.4-.1c.6-.1.7-.2.7-1.4V20.293c0-1.2-.1-1.3-.7-1.4l-.4-.1c-.1-.1-.1-.4,0-.4h3.986c.1.1.1.4,0,.4l-.4.1c-.6.1-.7.2-.7,1.4Z" transform="translate(-202.725 -18.201)"/><path class="a" d="M217.668,22.485c0,2.691-1.893,4.385-4.684,4.385a4.187,4.187,0,0,1-4.484-4.285,4.377,4.377,0,0,1,4.684-4.385A4.243,4.243,0,0,1,217.668,22.485ZM212.984,18.8c-1.594,0-2.491,1.4-2.491,3.488,0,1.495.6,3.986,2.691,3.986,1.694,0,2.392-1.594,2.392-3.587C215.575,20.492,214.579,18.8,212.984,18.8Z" transform="translate(-202.745 -18.2)"/></g><g transform="translate(218.167 18.236)"><path class="a" d="M227.37,24.578v1.993c-.1.2-.5.3-.8.3a15.015,15.015,0,0,0-1.1-1.4l-2.989-3.587c-.8-.9-1.2-1.4-1.4-1.594-.1.1-.1.3-.1.8v2.392a10.528,10.528,0,0,0,.2,2.292c.1.3.4.4.8.4h.4c.1.1.1.4,0,.4H219.1a.3.3,0,0,1,0-.4h.2c.4-.1.6-.2.7-.4a10.526,10.526,0,0,0,.2-2.292V20.293a2.523,2.523,0,0,0-.1-1.1.717.717,0,0,0-.7-.4l-.4-.1c-.1-.1-.1-.4.1-.4h2.89c.1.6,1,1.495,2.192,2.89l1.1,1.2c.6.7,1,1.1,1.3,1.4.1-.1.1-.3.1-.6V21.489a10.527,10.527,0,0,0-.2-2.292c-.1-.3-.4-.4-.8-.4l-.4-.1c-.1-.1-.1-.4,0-.4h3.288a.3.3,0,0,1,0,.4h-.2a.839.839,0,0,0-.7.4,10.526,10.526,0,0,0-.2,2.292v3.189Z" transform="translate(-218.934 -18.3)"/></g><g transform="translate(228.322 18.335)"><path class="a" d="M232.09,23.881c-.3,0-.4,0-.4.3l-.5,1.495a1.333,1.333,0,0,0-.1.5c0,.1.2.2.5.2l.4.1c.1.1.1.4,0,.4H229.2a.3.3,0,0,1,0-.4h.4a.793.793,0,0,0,.8-.6c.2-.5.5-1.1.8-1.993l1.2-3.089a5.373,5.373,0,0,0,.5-1.594,2.116,2.116,0,0,0,1.1-.8c.2,0,.2.1.3.2.1.4.3.8.6,1.694l1.794,4.883c.3.8.4,1,.9,1.1l.5.1c.1.1.1.4,0,.4h-3.787c-.1-.1-.2-.3,0-.4l.4-.1c.3-.1.4-.1.4-.2s-.1-.4-.2-.9l-.4-1.1c-.1-.2-.2-.2-.6-.2Zm1.495-.7c.3,0,.4,0,.3-.4l-.3-1c-.2-.5-.4-1.2-.5-1.495-.1.3-.4,1-.6,1.495l-.3.9c-.1.3-.1.4.3.4h1.1Z" transform="translate(-229.125 -18.4)"/></g><g transform="translate(238.486 18.236)"><path class="a" d="M242.489,24.578a2.862,2.862,0,0,0,.2,1.2c.2.2.4.3,1.4.3,1.2,0,1.594,0,2.292-1.495a.347.347,0,0,1,.5.1,6.8,6.8,0,0,1-.6,1.993H239.4c-.1-.1-.1-.4,0-.4l.5-.1c.6-.1.7-.2.7-1.3V20.193c0-1.2-.1-1.3-.7-1.4l-.4-.1c-.1-.1-.1-.4,0-.4h3.886c.1.1.1.4,0,.4l-.3.1c-.6.1-.7.2-.7,1.4v4.385Z" transform="translate(-239.325 -18.3)"/></g><g transform="translate(250.254 18.335)"><path class="a" d="M251.3,18.8c-.1-.1-.1-.4,0-.4h2.89a8.239,8.239,0,0,0,1,2.691l.9,1.794c.1.3.6,1,.8,1.4a8.777,8.777,0,0,0,.7-1.4l.7-1.4a13.255,13.255,0,0,0,1.2-2.989h2.79a.3.3,0,0,1,0,.4l-.4.1c-.5.1-.8.2-.8.9,0,2.591,0,3.886.1,5.481,0,.6.1.9.6.9h.4c.1.1.1.4,0,.4h-3.687c-.2-.1-.2-.4,0-.4h.4c.6-.1.6-.2.6-1V20.592h0c-1,1.993-1.993,4.086-2.89,6.178-.1,0-.2.1-.3.1s-.3,0-.3-.1c-.5-1.594-2.093-4.684-2.79-6.278h0a14.745,14.745,0,0,0-.1,1.993v2.79c0,.6.1.8.6.9l.5.1c.1.1.1.4,0,.4H251.3c-.2-.1-.2-.4-.1-.4h.2c.7-.1.7-.2.8-1,.1-.6.1-1.694.2-2.89a22.555,22.555,0,0,0,.1-2.491c0-.7-.3-.9-.8-1Z" transform="translate(-251.134 -18.4)"/></g><g transform="translate(262.601 18.236)"><path class="a" d="M264.6,20.193c0-1.2-.1-1.2-.7-1.4l-.3-.1c-.1-.1-.1-.4,0-.4h3.787c.1.1.1.4,0,.4l-.3.1c-.6.1-.7.2-.7,1.4v2.89c0,1.495.2,3.089,2.192,3.089,1.694,0,2.192-1.4,2.192-3.089V21.588a10.528,10.528,0,0,0-.2-2.292c-.1-.3-.4-.3-.8-.4l-.4-.1c-.1-.1-.1-.4,0-.4h3.288a.3.3,0,0,1,0,.4l-.2.1c-.3.1-.6.2-.7.4a10.525,10.525,0,0,0-.2,2.292v1.4a4.108,4.108,0,0,1-.8,2.989,3.56,3.56,0,0,1-2.591.9,4.391,4.391,0,0,1-2.591-.7,3.288,3.288,0,0,1-1-2.79V20.193Z" transform="translate(-263.525 -18.3)"/></g><g transform="translate(273.039 18.236)"><path class="a" d="M276.591,26.87a4.043,4.043,0,0,1-2.192-.5,4.625,4.625,0,0,1-.4-1.993.282.282,0,0,1,.5,0c.3.8,1.1,1.993,2.192,1.993a1.232,1.232,0,0,0,1.4-1.3c0-1-1-1.594-1.794-1.993-.9-.5-1.993-1.2-1.993-2.392,0-1.4,1.1-2.392,2.99-2.392a4.13,4.13,0,0,1,1.495.2c.2,0,.3.1.4.1a6.79,6.79,0,0,1,.2,1.794.282.282,0,0,1-.5,0c-.2-.6-.8-1.594-1.694-1.594a1.131,1.131,0,0,0-1.3,1.2,1.679,1.679,0,0,0,1.2,1.4l.9.4a2.771,2.771,0,0,1,1.794,2.491C279.879,25.873,278.584,26.87,276.591,26.87Z" transform="translate(-274 -18.3)"/></g><g transform="translate(280.239 18.335)"><path class="a" d="M284.289,21.688c0,.4,0,.4.4.4h.9c.7,0,.8-.1,1-.7l.1-.3a.453.453,0,0,1,.5,0v2.591a.453.453,0,0,1-.5,0l-.1-.3c-.1-.6-.3-.7-1-.7h-.9c-.4,0-.4,0-.4.4v1.495a2.861,2.861,0,0,0,.2,1.2c.2.2.4.3,1.4.3,1.1,0,1.594,0,2.292-1.495a.347.347,0,0,1,.5.1,14.281,14.281,0,0,1-.5,1.993H281.3c-.1-.1-.1-.4,0-.4l.6-.1c.6-.1.7-.2.7-1.3V20.194c0-1.1-.1-1.2-.7-1.3l-.3-.1c-.1-.1-.1-.4,0-.4h6.477c0,.2.1,1.1.2,1.893-.1.1-.4.2-.5.1a2.336,2.336,0,0,0-.5-1,1.79,1.79,0,0,0-1.3-.4h-1c-.4,0-.4,0-.4.5v2.192Z" transform="translate(-281.225 -18.4)"/></g><g transform="translate(288.51 18.236)"><path class="a" d="M290.6,20.193c0-1.2-.1-1.2-.7-1.4l-.3-.1c-.1-.1-.1-.4,0-.4h3.787c.1.1.1.4,0,.4l-.3.1c-.6.1-.7.2-.7,1.4v2.89c0,1.495.2,3.089,2.192,3.089,1.694,0,2.192-1.4,2.192-3.089V21.588a10.523,10.523,0,0,0-.2-2.292c-.1-.3-.4-.3-.8-.4l-.4-.1c-.1-.1-.1-.4,0-.4h3.288a.3.3,0,0,1,0,.4l-.2.1c-.3.1-.6.2-.7.4a10.526,10.526,0,0,0-.2,2.292v1.4a4.108,4.108,0,0,1-.8,2.989,3.56,3.56,0,0,1-2.591.9,4.391,4.391,0,0,1-2.591-.7,3.288,3.288,0,0,1-1-2.79V20.193Z" transform="translate(-289.525 -18.3)"/></g><g transform="translate(298.783 18.335)"><path class="a" d="M300,18.8c-.1-.1-.1-.4,0-.4h2.89a8.239,8.239,0,0,0,1,2.691l.9,1.794c.1.3.6,1,.8,1.4a8.78,8.78,0,0,0,.7-1.4l.7-1.4a13.258,13.258,0,0,0,1.2-2.989h2.79a.3.3,0,0,1,0,.4l-.4.1c-.5.1-.8.2-.8.9,0,2.591,0,3.886.1,5.481,0,.6.1.9.6.9h.4c.1.1.1.4,0,.4h-3.687c-.2-.1-.2-.4,0-.4h.4c.6-.1.6-.2.6-1V20.592h0c-1,1.993-1.993,4.086-2.89,6.178-.1,0-.2.1-.3.1s-.3,0-.3-.1c-.5-1.594-2.093-4.684-2.79-6.278h0a14.749,14.749,0,0,0-.1,1.993v2.79c0,.6.1.8.6.9l.5.1c.1.1.1.4,0,.4H300c-.2-.1-.2-.4-.1-.4h.2c.7-.1.7-.2.8-1,.1-.6.1-1.694.2-2.89a22.548,22.548,0,0,0,.1-2.491c0-.7-.3-.9-.8-1Z" transform="translate(-299.834 -18.4)"/></g><path class="a" d="M34.75,10.679c0-2.89.2-4.584-3.886-4.584-.6,0-2.989.3-2.989,1.3a3.275,3.275,0,0,0,.6,1.2,2.5,2.5,0,0,1,.6,1.4c0,2.292-1.2,3.886-3.587,3.886A3.35,3.35,0,0,1,21.9,10.479c0-4.385,5.979-5.879,9.467-5.879,7.175,0,10.264,2.093,10.264,3.687V21.839c0,1.2.1,2.591,1.594,2.591a2.017,2.017,0,0,0,1.4-.8l1,1.1a6.1,6.1,0,0,1-5.78,3.189c-2.392,0-4.385-2.093-4.982-3.886a10.553,10.553,0,0,1-7.773,3.886c-2.989,0-6.477-1.694-6.477-5.182,0-6.477,9.267-8.171,14.15-8.271Zm0,5.082c-2.989.2-7.075.6-7.075,4.484,0,1.893,1,4.385,3.189,4.385,2.591,0,3.886-1.694,3.886-3.189Z" transform="translate(-0.072 -0.016)"/><path class="a" d="M16.143,19.548c0,6.278-.9,10.364-4.086,13.752a9.287,9.287,0,0,1-6.975,3.089C2.491,36.389,0,35.093,0,32.4a3.086,3.086,0,0,1,3.089-2.989c1.3,0,2.89.8,2.89,2.292,0,.4-.1.8-.1,1.1-.2,1.1-.3,1.694.8,1.893,2.292.4,1.794-4.385,1.794-5.58V6.494H6.378V4.9H8.47c1.3,0,2.591-.1,3.787-.1,1.3-.1,2.591-.1,3.787-.1V19.548Z" transform="translate(0 -0.016)"/><path class="a" d="M73.112,25.327V9.881c0-4.285-2.89-5.281-6.278-5.281-3.787,0-6.677,1.1-9.068,5.182V4.7c-2.491,0-4.982.2-7.474.2H48.1V6.493h2.192V25.327H48.2v1.594H59.958V25.327H57.866V14.465c0-3.089,1.993-7.573,5.58-7.573,1.594,0,2.392.8,2.392,4.285v14.15H63.645v1.594h11.26V25.327Z" transform="translate(-0.169 -0.016)"/><path class="a" d="M118.659,25.327V9.084c0-3.288-3.587-4.484-6.378-4.484a11.226,11.226,0,0,0-9.068,5.182c-.6-3.587-3.488-5.182-6.776-5.182-3.687,0-6.477,2.392-8.271,5.381V4.7c-2.491,0-4.982.2-7.474.2H78.6V6.493h2.093V25.327H78.6v1.594H90.259V25.327H88.067V14.166c0-4.982,3.587-7.274,5.381-7.274,2.093,0,2.392,1.1,2.392,4.684V25.327H93.747v1.594h11.759V25.327h-2.192V13.967c0-2.89,2.392-7.075,5.68-7.075,1.993,0,2.192,1.594,2.192,3.089V25.427h-2.192v1.495h11.659V25.327Z" transform="translate(-0.276 -0.016)"/><path class="a" d="M148.023,1.993,145.631.1l-.1-.1h0l-.1.1L143.04,1.993c-5.68,4.584-11.36,9.168-16.94,13.752.1.1.5.5.6.5,4.086,3.288,7.773,6.278,11.858,9.566,2.292,1.893,6.776,5.68,6.776,5.68l.2.2h0l.2-.2s4.484-3.787,6.776-5.68c4.086-3.288,7.773-6.278,11.858-9.566.1,0,.4-.4.6-.5-5.68-4.584-11.36-9.168-16.94-13.752m8.171,12.157a6.971,6.971,0,0,0-3.587-1.4,5.926,5.926,0,0,0-6.278,5.879,1.515,1.515,0,0,0,1.2,1.594,1.649,1.649,0,0,0,1.893-.3,1.567,1.567,0,0,0,.6-1.893,1.253,1.253,0,0,1,.5-1.594,2.714,2.714,0,0,1,3.488-.1,2.769,2.769,0,0,1,.3,4.385c-1.794,1.495-3.687,2.989-5.58,4.484-.9.7-3.089,2.392-3.189,2.491h0c-.1-.1-2.292-1.794-3.189-2.491-1.893-1.495-3.787-2.89-5.58-4.484a2.769,2.769,0,0,1,.3-4.385,2.841,2.841,0,0,1,3.488.1,1.219,1.219,0,0,1,.5,1.594,1.567,1.567,0,0,0,.6,1.893,1.676,1.676,0,0,0,1.893.3,1.979,1.979,0,0,0,1.2-1.594c.2-3.189-3.089-6.178-6.278-5.879a6.971,6.971,0,0,0-3.587,1.4,1.586,1.586,0,0,1-.4-1.794,1.119,1.119,0,0,1,1.794-.5,1.113,1.113,0,0,0,1.594-.1,1.008,1.008,0,0,0-.4-1.4,4.856,4.856,0,0,0-.7-.3c-.2-.1-.5-.1-.7-.2.2-.6,1-.9,1.594-1,.9-.2,2.491-.1,2.691,1a2.709,2.709,0,0,1,0,.9,2.462,2.462,0,0,0,.4.9,1.925,1.925,0,0,0,1.495.7,1.757,1.757,0,0,0,1.495-.8,1.8,1.8,0,0,0,0-2.192,4.871,4.871,0,0,0-1.4-1.794,6.047,6.047,0,0,0-3.687-1.2L145.432.8l6.676,5.481a5.475,5.475,0,0,0-3.687,1.2,4.87,4.87,0,0,0-1.4,1.794,2.159,2.159,0,0,0,0,2.192,2.231,2.231,0,0,0,1.495.8,1.948,1.948,0,0,0,1.495-.7,1.791,1.791,0,0,0,.4-.9,2.709,2.709,0,0,1,0-.9c.3-1.1,1.893-1.2,2.691-1a2.137,2.137,0,0,1,1.594,1c-.2.1-.5.1-.7.2s-.5.1-.7.3a.952.952,0,0,0-.4,1.4c.3.5,1,.5,1.594.1a1.107,1.107,0,0,1,1.794.5,1.3,1.3,0,0,1-.1,1.893" transform="translate(-0.442)"/></svg>